,
.   http://www.scenetime.com/signup.php  ---&gt;  Hottest scene tracker on the net !!! 
Scenetime lucky draw is started , join now and be the winner . offer is limited 

    Join Now   http://www.scenetime.com/signup.php

    seed back for speed


 



...................................NFO:.................................................[img]http://img834.imageshack.us/img834/9052/suingthedevilchristianm.jpg[/img]


[color=blue][size=5][b]Suing.The.Devil.2011.DVDRip.XVID.AC3.HQ.Hive-CM8[/b][/size][/color]


[b]Thx Hive

CM8 Doing It Right The First Time :D


Source: DVDR.CARECA79 Thx

Encode:
another spanish dvd with some problems but was fixable.
It was interlaced, only stereo english audio, colours, brightness and contrast all off a lot.
removed the interlace, fixed the colours adjusted the brightness and contrast, still stereo audio btw
but got still nice
enjoy

Video: 720x400 @bitrate 1700 2pass
Audio: English AC3 2.0 Stereo
Sample: Yes, included[/b]
 
http://www.imdb.com/title/tt1615075/


General
Complete name                  : Suing.The.Devil.2011.DVDRip.XVID.AC3.HQ.Hive-CM8.avi
Format                         : AVI
Format/Info                    : Audio Video Interleave
File size                      : 1.41 GiB
Duration                       : 1h 46mn
Overall bit rate               : 1 901 Kbps
Writing application            : Nandub v1.0rc2
Writing library                : Nandub build 1853/release

Video
ID                             : 0
Format                         : MPEG-4 Visual
Format profile                 : Advanced Simple@L5
Format settings, BVOP          : 2
Format settings, QPel          : Yes
Format settings, GMC           : No warppoints
Format settings, Matrix        : Default (H.263)
Muxing mode                    : Packed bitstream
Codec ID                       : XVID
Codec ID/Hint                  : XviD
Duration                       : 1h 46mn
Bit rate                       : 1 699 Kbps
Width                          : 720 pixels
Height                         : 400 pixels
Display aspect ratio           : 16:9
Frame rate                     : 23.976 fps
Color space                    : YUV
Chroma subsampling             : 4:2:0
Bit depth                      : 8 bits
Scan type                      : Progressive
Compression mode               : Lossy
Bits/(Pixel*Frame)             : 0.246
Stream size                    : 1.26 GiB (89%)
Writing library                : XviD 1.2.1 (UTC 2008-12-04)

Audio
ID                             : 1
Format                         : AC-3
Format/Info                    : Audio Coding 3
Mode extension                 : CM (complete main)
Codec ID                       : 2000
Duration                       : 1h 46mn
Bit rate mode                  : Constant
Bit rate                       : 192 Kbps
Channel(s)                     : 2 channels
Channel positions              : Front: L R
Sampling rate                  : 48.0 KHz
Bit depth                      : 16 bits
Compression mode               : Lossy
Stream size                    : 146 MiB (10%)
Alignment                      : Split accross interleaves
Interleave, duration           : 42 ms (1.00 video frame)
Interleave, preload duration   : 500 ms


Plot:
A down-and-out law student sues Satan for $8 trillion dollars.
Satan appears to defend himself and the trial of the century
takes place.


Cast:
Malcolm McDowell  ...     Satan
Shannen Fields    ...     Gwen O'Brien
Corbin Bernsen    ...     Barry Polk
Tom Sizemore      ...     Tony 'The Hip' Anzaldo


[img]http://img18.imageshack.us/img18/8036/34038128.png[/img]
[img]http://img39.imageshack.us/img39/6093/sussussusuuu.png[/img]
[img]http://img718.imageshack.us/img718/589/sussussuuu.png[/img]
[img]http://img233.imageshack.us/img233/4562/sussusuu.png[/img]
[img]http://img17.imageshack.us/img17/1395/sussuu.png[/img]
[img]http://img845.imageshack.us/img845/9117/susuh.png[/img]



Greetz

ViSiON,SPK,SANTi,3LT0N,FUSiON,YanKeeS,MAGNET,Feel-Free,THC,LKRG,BHRG
FANTASIA-PLAY,FANTASIA-M,FLAWL3SS,WBZ,ZMG,NOVA,D2U,Vik,Rapeseed
T0XiC,SAFC,goldadvance,MEMORY100,KaN1vE,Unevano,Pinnz,Wayne
Mr Hive,and most P2P groups
Great Work Guys :D

LOOKING FOR ANYTHING YOU WANT TO LOOK AND SOUND BETTER

CM8@hushmail.com